<svg id="Capa_1" enable-background="new 0 0 72 72" height="512" viewBox="0 0 72 72" width="512" xmlns="http://www.w3.org/2000/svg"><g><g><path d="m71.732 36c0 19.697-16.035 35.732-35.732 35.732s-35.732-16.035-35.732-35.732 16.035-35.732 35.732-35.732 35.732 16.035 35.732 35.732z" fill="#fcdf83"/></g><g enable-background="new" opacity=".25"><ellipse cx="15.9" cy="18.134" fill="#fff" rx="7.709" ry="5.507" transform="matrix(.707 -.707 .707 .707 -8.165 16.555)"/></g><g enable-background="new" opacity=".1"><path d="m71.732 36c0 19.697-16.035 35.732-35.732 35.732-14.873 0-27.67-9.134-33.029-22.109 6.208 10.541 17.687 17.643 30.796 17.643 19.697 0 35.732-16.035 35.732-35.732 0-4.824-.96-9.424-2.702-13.623 3.126 5.315 4.935 11.501 4.935 18.089z" fill="#563c30"/></g><g><path d="m47.168 58.332c-.804 0-1.579-.433-1.976-1.188-.123-.21-2.052-3.278-9.192-3.278-7.233 0-9.118 3.149-9.196 3.285-.601 1.05-1.943 1.461-3.008.889s-1.501-1.858-.96-2.939c.293-.585 3.142-5.701 13.165-5.701s12.872 5.116 13.165 5.701c.552 1.103.105 2.445-.998 2.997-.323.158-.665.234-1 .234zm1.115-13.399c-5.735 0-7.816-4.006-7.816-6.7 0-1.233 1-2.233 2.233-2.233 1.222 0 2.213.98 2.233 2.198.031.688.422 2.269 3.35 2.269 3.189 0 3.35-1.86 3.35-2.233 0-1.233 1-2.233 2.233-2.233s2.233 1 2.233 2.233c0 2.693-2.081 6.699-7.816 6.699zm-3.35-6.7h.022zm-21.216 6.7c-5.735 0-7.816-4.006-7.816-6.7 0-1.233 1-2.233 2.233-2.233 1.222 0 2.213.98 2.233 2.198.031.688.422 2.269 3.35 2.269 3.189 0 3.35-1.86 3.35-2.233 0-1.233 1-2.233 2.233-2.233s2.233 1 2.233 2.233c.001 2.693-2.081 6.699-7.816 6.699zm-3.35-6.7h.022z" fill="#563c30"/></g></g></svg>