<svg id="Capa_1" enable-background="new 0 0 32 32" height="512" viewBox="0 0 32 32" width="512" xmlns="http://www.w3.org/2000/svg"><g><g><path d="m32 16c0 8.82-7.18 16-16 16s-16-7.18-16-16 7.18-16 16-16 16 7.18 16 16z" fill="#fc9583"/></g><g enable-background="new" opacity=".15"><ellipse cx="7" cy="8" fill="#fff" rx="3.452" ry="2.466" transform="matrix(.707 -.707 .707 .707 -3.607 7.293)"/></g><g enable-background="new" opacity=".1"><path d="m32 16c0 8.82-7.18 16-16 16-6.66 0-12.39-4.09-14.79-9.9 2.78 4.72 7.92 7.9 13.79 7.9 8.82 0 16-7.18 16-16 0-2.16-.43-4.22-1.21-6.1 1.4 2.38 2.21 5.15 2.21 8.1z" fill="#563c30"/></g><g><path d="m21.001 23c-.36 0-.706-.194-.885-.532-.055-.094-.92-1.468-4.116-1.468-3.239 0-4.083 1.41-4.118 1.471-.269.47-.87.653-1.347.398-.478-.256-.672-.832-.43-1.316.131-.262 1.407-2.553 5.895-2.553s5.764 2.291 5.895 2.553c.247.494.047 1.095-.447 1.342-.144.071-.297.105-.447.105zm-.001-5c-.553 0-1-.447-1-1v-2.766c-1.23.442-2.607.766-4 .766-1.392 0-2.769-.324-4-.766v2.766c0 .553-.448 1-1 1s-1-.447-1-1v-3.63c-1.505-.758-2.516-1.507-2.6-1.57-.441-.331-.531-.957-.2-1.399.331-.441.958-.53 1.399-.202.038.029 3.792 2.801 7.401 2.801s7.363-2.772 7.4-2.801c.442-.33 1.069-.24 1.399.202.331.442.242 1.068-.2 1.399-.084.063-1.094.813-2.6 1.57v3.63c.001.553-.446 1-.999 1z" fill="#563c30"/></g></g></svg>