<svg viewBox="0 0 512 512" xmlns="http://www.w3.org/2000/svg"><g id="Layer_2" data-name="Layer 2"><g id="Layer_1_copy_2" data-name="Layer 1 copy 2"><g id="_5" data-name="5"><path d="m256 0c-141.38 0-256 114.62-256 256s114.62 256 256 256 256-114.62 256-256-114.62-256-256-256zm32.42 363.58a32.42 32.42 0 0 1 -32.42 32.42 32.42 32.42 0 0 1 -32.42-32.42v-129.69a32.42 32.42 0 0 1 32.42-32.42 32.42 32.42 0 0 1 32.42 32.42zm-32.42-182.74a32.42 32.42 0 1 1 32.42-32.42 32.41 32.41 0 0 1 -32.42 32.42z"/></g></g></g></svg>