<?xml version="1.0" encoding="UTF-8"?>
<svg id="ssps" xmlns="http://www.w3.org/2000/svg" version="1.1" viewBox="0 0 79.5 27.9">
  <!-- Generator: Adobe Illustrator 29.0.0, SVG Export Plug-In . SVG Version: 2.1.0 Build 186)  -->
  <defs>
    <style>
      .st0 {
        fill: #fff;
      }
    </style>
  </defs>
  <path id="s_x5F_2" class="st0" d="M63.6,13.5h5.6c0,1,.8,1.5,2.3,1.5s2.3-.6,2.3-1.4c0-1.2-1.4-1.4-3.1-1.6-2.6-.4-6.8-1-6.8-5.5,0-3.8,3-6.4,7.6-6.4s7.5,2.7,7.6,6h-5.5c-.2-.9-.9-1.4-2-1.4s-2,.7-2,1.5c0,1.1,1.4,1.3,3.1,1.5,2.7.4,6.8,1.1,6.8,5.5s-3.2,6.4-8,6.4-7.9-2.6-8-6.1h0Z"/>
  <path id="s_x5F_1" class="st0" d="M43.3,13.5h5.6c0,1,.8,1.5,2.3,1.5s2.3-.6,2.3-1.4c0-1.2-1.4-1.4-3.1-1.6-2.6-.4-6.8-1-6.8-5.5,0-3.8,3-6.4,7.6-6.4s7.5,2.7,7.6,6h-5.5c-.2-.9-.9-1.4-2-1.4s-2,.7-2,1.5c0,1.1,1.4,1.3,3.1,1.5,2.7.4,6.8,1.1,6.8,5.5s-3.2,6.4-8,6.4-7.9-2.6-8-6.1h0Z"/>
  <path id="p" class="st0" d="M26.1,18.9c1.1.4,2.3.7,3.5.7,5.4,0,9.8-4.4,9.8-9.8S35,0,29.6,0s-9.8,4.4-9.8,9.8v18.1h6.3s0-9,0-9ZM29.7,5.8c2.2,0,4,1.8,4,4s-1.8,4-4,4-4-1.8-4-4,1.8-4,4-4Z"/>
  <path id="s_x5F_0" class="st0" d="M0,13.5h5.6c0,1,.8,1.5,2.3,1.5s2.3-.6,2.3-1.4c0-1.2-1.4-1.4-3.1-1.6-2.6-.4-6.8-1-6.8-5.5C.3,2.6,3.3,0,7.9,0s7.5,2.7,7.6,6h-5.5c-.2-.9-.9-1.4-2-1.4s-2,.7-2,1.5c0,1.1,1.4,1.3,3.1,1.5,2.7.4,6.8,1.1,6.8,5.5s-3.2,6.4-8,6.4S0,17,0,13.5Z"/>
</svg>