<svg id="Capa_1" enable-background="new 0 0 32 32" height="512" viewBox="0 0 32 32" width="512" xmlns="http://www.w3.org/2000/svg"><g><g><path d="m32 16c0 8.82-7.18 16-16 16s-16-7.18-16-16 7.18-16 16-16 16 7.18 16 16z" fill="#fcdf83"/></g><g enable-background="new" opacity=".25"><ellipse cx="7" cy="8" fill="#fff" rx="3.452" ry="2.466" transform="matrix(.707 -.707 .707 .707 -3.607 7.293)"/></g><g enable-background="new" opacity=".1"><path d="m32 16c0 8.82-7.18 16-16 16-6.66 0-12.39-4.09-14.79-9.9 2.78 4.72 7.92 7.9 13.79 7.9 8.82 0 16-7.18 16-16 0-2.16-.43-4.22-1.21-6.1 1.4 2.38 2.21 5.15 2.21 8.1z" fill="#563c30"/></g><g><g><path d="m15 12c0 3.58-4.37 5.8-4.55 5.89-.14.07-.3.11-.45.11s-.31-.04-.45-.11c-.18-.09-4.55-2.31-4.55-5.89 0-1.21.8-3 3-3 .88 0 1.53.29 2 .7.47-.41 1.12-.7 2-.7 2.2 0 3 1.79 3 3z" fill="#fc9583"/></g></g><g><g><path d="m27 12c0 3.58-4.37 5.8-4.55 5.89-.14.07-.3.11-.45.11s-.31-.04-.45-.11c-.18-.09-4.55-2.31-4.55-5.89 0-1.21.8-3 3-3 .88 0 1.53.29 2 .7.47-.41 1.12-.7 2-.7 2.2 0 3 1.79 3 3z" fill="#fc9583"/></g></g><g opacity=".1"><g><path d="m15 12c0 3.58-4.37 5.8-4.55 5.89-.14.07-.3.11-.45.11s-.31-.04-.45-.11c-.11-.06-1.84-.93-3.13-2.45 1.04.9 2.05 1.4 2.13 1.45.14.07.3.11.45.11s.31-.04.45-.11c.18-.09 4.55-2.31 4.55-5.89 0-.49-.14-1.1-.45-1.62 1.04.59 1.45 1.75 1.45 2.62z" fill="#563c30"/></g></g><g opacity=".1"><g><path d="m27 12c0 3.58-4.37 5.8-4.55 5.89-.14.07-.3.11-.45.11s-.31-.04-.45-.11c-.11-.06-1.84-.93-3.13-2.45 1.04.9 2.05 1.4 2.13 1.45.14.07.3.11.45.11s.31-.04.45-.11c.18-.09 4.55-2.31 4.55-5.89 0-.49-.14-1.1-.45-1.62 1.04.59 1.45 1.75 1.45 2.62z" fill="#563c30"/></g></g><g><path d="m16 24c-5.472 0-7.738-3.305-7.832-3.445-.306-.46-.182-1.08.277-1.387.458-.304 1.075-.183 1.383.271.078.113 1.827 2.561 6.172 2.561 4.354 0 6.101-2.457 6.173-2.562.312-.45.931-.571 1.387-.263.454.309.577.922.272 1.379-.094.141-2.359 3.446-7.832 3.446z" fill="#563c30"/></g></g></svg>