<svg id="Capa_1" enable-background="new 0 0 32 32" height="512" viewBox="0 0 32 32" width="512" xmlns="http://www.w3.org/2000/svg"><g><g><path d="m32 16c0 8.82-7.18 16-16 16s-16-7.18-16-16 7.18-16 16-16 16 7.18 16 16z" fill="#fcdf83"/></g><g enable-background="new" opacity=".25"><ellipse cx="7" cy="8" fill="#fff" rx="3.452" ry="2.466" transform="matrix(.707 -.707 .707 .707 -3.607 7.293)"/></g><g enable-background="new" opacity=".1"><path d="m32 16c0 8.82-7.18 16-16 16-6.66 0-12.39-4.09-14.79-9.9 2.78 4.72 7.92 7.9 13.79 7.9 8.82 0 16-7.18 16-16 0-2.16-.43-4.22-1.21-6.1 1.4 2.38 2.21 5.15 2.21 8.1z" fill="#563c30"/></g><g><path d="m23 23h-14c-.552 0-1-.447-1-1s.448-1 1-1h14c.553 0 1 .447 1 1s-.447 1-1 1zm-2-5c-.553 0-1-.447-1-1v-5c0-.552.447-1 1-1s1 .448 1 1v5c0 .553-.447 1-1 1zm-10 0c-.552 0-1-.447-1-1v-5c0-.552.448-1 1-1s1 .448 1 1v5c0 .553-.448 1-1 1z" fill="#563c30"/></g></g></svg>