<svg height="512" viewBox="0 0 24 24" width="512" xmlns="http://www.w3.org/2000/svg">
    <g fill="#212121">
        <path d="m8.35179 20.2418c.84109 1.0692 2.16241 1.7582 3.64821 1.7582s2.8071-.689 3.6482-1.7582c-2.4218.3282-4.8746.3282-7.29641 0z"/>
        <path d="m18.7491 9v.7041c0 .845.2412 1.6711.6931 2.3741l1.1074 1.723c1.0116 1.5737.2394 3.7127-1.52 4.2104-4.6023 1.3018-9.45686 1.3018-14.05924 0-1.75931-.4977-2.53154-2.6367-1.52-4.2104l1.10744-1.723c.45192-.703.69307-1.5291.69307-2.3741v-.7041c0-3.86599 3.02169-7 6.74913-7 3.7274 0 6.7491 3.13401 6.7491 7z"/>
    </g>
</svg>