<?xml version="1.0" encoding="UTF-8"?><svg id="Layer_2" xmlns="http://www.w3.org/2000/svg" viewBox="0 0 415.8165 426.6"><defs><style>.cls-1{fill:red;}.cls-2{fill:#212121;}</style></defs><g id="Layer_1-2"><path class="cls-2" d="M114.1165,389.1c17.9,22.8,46.1,37.5,77.8,37.5s59.9-14.7,77.8-37.5c-51.7,7-104,7-155.7,0h.1Z"/><path class="cls-2" d="M335.9165,149.3v15c0,18,5.1,35.7,14.8,50.6l23.6,36.8c21.6,33.6,5.1,79.2-32.4,89.8-98.2,27.8-201.7,27.8-299.9,0-37.5-10.6-54-56.2-32.4-89.8l23.6-36.8c9.6-15,14.8-32.6,14.8-50.6v-15C48.0165,66.8,112.5165,0,192.0165,0s144,66.9,144,149.3h-.1Z"/><circle class="cls-1" cx="326.1165" cy="136.2" r="89.7"/></g></svg>