<svg viewBox="0 0 24 24" xmlns="http://www.w3.org/2000/svg"><g id="Icon"><path d="m17 5.25h-1.25v-1.25a1.76 1.76 0 0 0 -1.75-1.75h-4a1.76 1.76 0 0 0 -1.75 1.75v1.25h-1.25a2.75 2.75 0 0 0 -2.75 2.75 1.75 1.75 0 0 0 1 1.6l.88 10.54a1.76 1.76 0 0 0 1.74 1.61h8.16a1.76 1.76 0 0 0 1.74-1.6l.93-10.55a1.75 1.75 0 0 0 1.05-1.6 2.74 2.74 0 0 0 -2.75-2.75zm-7.25-1.25a.25.25 0 0 1 .25-.25h4a.25.25 0 0 1 .25.25v1.25h-4.5z" fill="#fac1c9"/><path d="m10 11.25a.76.76 0 0 0 -.75.75v6a.75.75 0 0 0 1.5 0v-6a.76.76 0 0 0 -.75-.75zm4 0a.76.76 0 0 0 -.75.75v6a.75.75 0 0 0 1.5 0v-6a.76.76 0 0 0 -.75-.75zm0 0a.76.76 0 0 0 -.75.75v6a.75.75 0 0 0 1.5 0v-6a.76.76 0 0 0 -.75-.75zm-4 0a.76.76 0 0 0 -.75.75v6a.75.75 0 0 0 1.5 0v-6a.76.76 0 0 0 -.75-.75zm7-6h-1.25v-1.25a1.76 1.76 0 0 0 -1.75-1.75h-4a1.76 1.76 0 0 0 -1.75 1.75v1.25h-1.25a2.75 2.75 0 0 0 -2.75 2.75 1.75 1.75 0 0 0 1 1.6l.88 10.54a1.76 1.76 0 0 0 1.74 1.61h8.16a1.76 1.76 0 0 0 1.74-1.6l.93-10.55a1.75 1.75 0 0 0 1.05-1.6 2.74 2.74 0 0 0 -2.75-2.75zm-7.25-1.25a.25.25 0 0 1 .25-.25h4a.25.25 0 0 1 .25.25v1.25h-4.5zm6.58 16a.25.25 0 0 1 -.25.23h-8.16a.25.25 0 0 1 -.25-.23l-.86-10.25h10.38zm1.67-11.75h-12a.25.25 0 0 1 -.25-.25 1.25 1.25 0 0 1 1.25-1.25h10a1.25 1.25 0 0 1 1.25 1.25.25.25 0 0 1 -.25.25zm-4 10.5a.76.76 0 0 0 .75-.75v-6a.75.75 0 0 0 -1.5 0v6a.76.76 0 0 0 .75.75zm-4 0a.76.76 0 0 0 .75-.75v-6a.75.75 0 0 0 -1.5 0v6a.76.76 0 0 0 .75.75z" fill="#ef314c"/></g></svg>